<svg version="1.1" id="Layer_1" xmlns="http://www.w3.org/2000/svg" xmlns:xlink="http://www.w3.org/1999/xlink" x="0px" y="0px"
	 width="100%" viewBox="0 0 496 496" enable-background="new 0 0 496 496" xml:space="preserve">
<path fill="#000000" opacity="1.000000" stroke="none" 
	d="
M341.962097,324.031555 
	C310.172577,316.278656 296.795654,289.878204 293.597717,262.997528 
	C291.483398,245.225769 293.149719,227.842697 297.630798,210.533051 
	C290.827789,211.891602 290.014709,213.460266 290.040344,219.752457 
	C290.080383,229.569702 289.982086,239.440140 289.005402,249.194229 
	C288.007568,259.159485 288.281891,269.143768 287.509827,279.112762 
	C286.225098,295.701721 285.965118,312.370911 285.320465,329.008148 
	C284.994843,337.411530 280.190857,342.404022 270.291321,343.064758 
	C261.664825,343.640533 252.955612,343.540375 244.312241,343.126801 
	C236.988647,342.776367 232.412369,338.141632 231.392288,330.838501 
	C230.053909,321.256744 230.541962,311.562134 229.919449,301.920990 
	C228.246597,276.013306 227.250519,250.061676 226.038498,224.125015 
	C225.953949,222.315384 225.782257,220.224243 226.542206,218.711761 
	C229.349823,213.123810 226.658875,210.032944 222.625076,206.343491 
	C213.630966,198.117126 210.061707,183.993530 220.062134,172.862701 
	C224.330399,168.111969 223.674911,165.206421 218.954697,161.078018 
	C213.792694,156.563202 211.076263,150.645294 210.811935,143.943512 
	C210.464432,135.132019 210.680328,126.293739 210.820084,117.469604 
	C210.884827,113.382767 213.599731,111.263123 217.121109,113.207581 
	C223.568024,116.767471 230.614090,116.521286 237.455307,117.617332 
	C246.944153,119.137558 254.499298,123.514297 258.524261,132.486115 
	C260.237701,136.305420 263.123352,135.535782 266.002045,135.743134 
	C268.658875,135.934509 270.668701,135.585999 272.056610,132.689484 
	C277.555054,121.214325 287.311066,115.939949 299.567657,114.815681 
	C303.887024,114.419479 308.134399,113.782227 312.379883,112.926727 
	C317.840240,111.826424 319.557465,113.687859 318.199341,118.951874 
	C316.819733,124.298996 316.340363,129.571259 316.978302,135.207077 
	C318.257629,146.509872 315.087952,156.414078 304.935608,162.886551 
	C301.796570,164.887833 302.087494,167.348755 302.798737,170.240723 
	C304.006836,175.153183 308.496429,178.426346 308.791992,184.745087 
	C314.021240,177.461975 318.406982,171.169998 324.376434,166.289841 
	C346.156891,148.483704 370.603027,145.750854 396.819427,153.772293 
	C404.814453,156.218567 412.400604,159.738083 419.166534,164.716660 
	C429.049225,171.988663 430.779541,179.438126 425.285980,190.306824 
	C422.506622,195.805557 419.776825,201.346481 416.654755,206.650635 
	C412.426666,213.833832 406.560211,214.417709 400.849091,208.375641 
	C394.954773,202.139740 388.121735,197.570999 379.492096,196.415359 
	C367.129944,194.759888 358.987061,199.243820 352.207764,211.317062 
	C347.412292,219.857376 345.032990,229.203064 343.788727,238.840912 
	C342.314392,250.261261 341.500488,261.676361 344.323669,273.058228 
	C346.703918,282.654449 353.436829,287.868103 363.192230,287.409515 
	C369.049164,287.134216 372.766510,283.932800 373.490173,277.833008 
	C374.429718,269.913452 374.938110,261.943390 375.693237,254.000870 
	C375.960388,251.190704 376.170746,248.341232 376.822693,245.608887 
	C378.049438,240.467850 382.307526,236.887833 387.585297,236.708618 
	C396.584137,236.403091 405.565247,237.049240 414.426788,238.578506 
	C422.139130,239.909454 425.742249,244.301147 425.236176,252.195450 
	C424.598602,262.140991 423.409668,272.055267 422.305298,281.965942 
	C420.446564,298.646210 419.372711,315.463867 415.185913,331.787201 
	C410.812561,348.837738 402.113525,363.032959 385.288116,370.167633 
	C367.717438,377.618317 350.373535,376.692322 334.655579,365.040253 
	C322.091553,355.726318 320.671814,343.100098 330.015442,330.653717 
	C332.867615,326.854462 336.426727,324.415436 341.863464,324.221405 
	C344.764740,325.489319 345.712128,327.659912 347.004578,329.585693 
	C351.195648,335.830475 359.405853,340.216339 364.644562,338.684052 
	C372.189331,336.477264 371.208038,329.628906 372.147766,323.909485 
	C372.209869,323.531464 371.788544,323.074005 371.399811,322.242004 
	C361.734589,325.176086 351.900177,325.755859 341.962097,324.031555 
M309.701324,293.779114 
	C328.024323,319.200500 351.071472,325.853485 380.004791,310.907257 
	C379.831024,319.134247 378.634094,326.783447 376.536774,334.218445 
	C373.918976,343.498779 366.236511,347.271271 357.003723,344.343201 
	C350.725952,342.352356 345.756439,338.515900 342.100922,333.146423 
	C339.902557,329.917267 338.273163,330.404144 335.940155,332.925964 
	C326.922913,342.672943 328.744904,354.544952 340.523499,362.013702 
	C360.728058,374.825317 388.262054,368.847778 401.383667,348.812317 
	C408.624115,337.756836 411.039642,325.152283 412.618042,312.411255 
	C415.089966,292.457703 417.085724,272.445404 419.324402,252.462616 
	C419.857758,247.701874 417.661591,244.723724 412.831268,244.350327 
	C405.529663,243.785934 398.218262,243.296951 390.902069,242.988388 
	C384.535553,242.719879 382.817444,244.659882 382.251099,251.116714 
	C381.394287,260.885010 380.418945,270.649078 379.187103,280.376099 
	C378.317871,287.239532 373.040741,292.220490 366.329590,293.191742 
	C352.288818,295.223816 342.088562,288.601501 338.624512,274.816498 
	C335.236481,261.334076 336.088104,247.717758 338.341309,234.181473 
	C340.299438,222.417816 343.646484,211.109650 351.353882,201.625290 
	C359.035645,192.172455 368.815125,188.320511 381.000488,190.321136 
	C390.308258,191.849319 397.743988,196.500946 404.322479,202.917923 
	C409.034485,207.514267 409.631317,207.379608 412.695160,201.393234 
	C414.819672,197.242142 416.982513,193.109558 419.197662,189.006165 
	C424.370514,179.423920 423.210144,174.480637 413.956940,168.553772 
	C402.383667,161.140884 389.675354,156.898178 375.969421,155.873062 
	C353.730011,154.209702 334.630188,160.983398 320.755829,178.796280 
	C304.553711,199.597778 298.660553,223.885742 298.969055,249.967697 
	C299.149139,265.191315 301.625549,279.774414 309.701324,293.779114 
M284.551788,211.031631 
	C288.852325,209.152756 292.874237,206.799255 296.434204,203.735657 
	C304.241791,197.016617 306.944031,185.694565 301.735748,178.747665 
	C297.785187,173.478333 297.390625,167.520645 295.976532,161.575150 
	C306.135986,158.309128 311.729248,151.822571 312.009979,141.365494 
	C312.217468,133.636078 310.923096,125.866264 313.588135,117.773453 
	C307.706177,118.701561 302.807892,119.621506 297.870819,120.223747 
	C286.591217,121.599686 278.507050,126.960526 275.065094,138.178024 
	C274.247223,140.843613 272.989471,141.993790 270.027252,141.390121 
	C267.112549,140.796173 264.013275,140.203003 261.128967,140.595016 
	C257.559875,141.080063 255.850632,139.899246 254.890854,136.668091 
	C252.487656,128.577713 246.402084,124.022896 238.674454,122.821182 
	C231.065186,121.637886 223.224319,121.930794 215.162399,118.141609 
	C216.515091,127.651909 214.441193,136.072540 215.464310,144.483078 
	C216.629562,154.061874 222.671432,159.956467 230.133118,158.905060 
	C228.075912,165.302612 227.506348,172.001862 222.770233,177.278214 
	C220.026825,180.334579 218.940659,184.225006 219.290314,188.433273 
	C219.979904,196.732513 224.420639,202.726303 231.086594,207.169876 
	C239.006775,212.449524 248.414246,214.827301 256.477631,219.915726 
	C258.987396,221.499527 262.094788,221.120560 264.629578,219.583267 
	C270.669464,215.920181 277.394836,213.947525 284.551788,211.031631 
M280.901367,287.623901 
	C281.992554,264.350311 283.718811,241.092789 283.770477,217.333145 
	C278.016815,218.243546 273.615845,219.427597 269.663483,222.068436 
	C263.129089,226.434479 256.570007,226.427536 250.146957,221.846893 
	C246.981445,219.589371 243.519806,218.150635 239.790588,217.094009 
	C232.828247,215.121323 232.120117,215.395416 232.357834,222.521118 
	C232.817734,236.306717 233.547440,250.083466 234.188477,263.862823 
	C235.192734,285.450470 236.206665,307.037689 237.238174,328.624084 
	C237.501602,334.136932 239.660324,336.114532 245.199539,336.826324 
	C253.350220,337.873749 261.456848,337.355499 269.590302,336.753876 
	C276.749390,336.224304 279.396423,333.647614 279.642059,326.486511 
	C280.075226,313.856781 280.468811,301.225708 280.901367,287.623901 
z"/>
<path fill="#000000" opacity="1.000000" stroke="none" 
	d="
M86.691971,305.129028 
	C81.002007,275.991791 75.377731,247.275055 69.721870,218.564545 
	C67.085968,205.184036 64.331306,191.826706 61.739464,178.437775 
	C59.983562,169.367157 63.209930,163.791107 71.996536,160.684052 
	C89.458069,154.509399 107.217331,149.868790 125.830421,148.446671 
	C145.994003,146.906082 165.056931,149.911728 182.531250,160.299408 
	C201.790863,171.748337 212.393555,189.231003 216.334198,210.987457 
	C219.894455,230.643814 217.584595,249.466507 207.580444,266.978516 
	C196.459000,286.446320 179.031174,297.164062 157.683746,302.214996 
	C153.312943,303.249176 148.910507,304.248962 144.384216,304.284821 
	C141.031769,304.311371 140.023788,306.001312 140.497009,309.112244 
	C142.345306,321.263458 144.118835,333.426056 145.963974,345.577759 
	C147.061035,352.802734 143.709763,358.485626 136.583725,360.407623 
	C127.414230,362.880737 117.977722,364.091766 108.535522,364.758942 
	C101.896240,365.228119 97.407196,360.816620 95.852615,353.053558 
	C93.372231,340.667389 91.099068,328.239716 88.733200,315.830536 
	C88.079636,312.402618 87.408051,308.978119 86.691971,305.129028 
M84.605583,263.058136 
	C85.846260,269.415253 87.094917,275.770813 88.326195,282.129761 
	C92.779732,305.129974 97.185898,328.139496 101.705307,351.126740 
	C102.896431,357.185181 105.538658,359.231262 110.820671,358.518250 
	C117.572510,357.606873 124.320015,356.646149 131.044403,355.552979 
	C139.066681,354.248871 140.707336,351.722839 139.461227,343.523193 
	C137.813675,332.681732 136.156982,321.838989 134.737610,310.966339 
	C133.396591,300.693726 134.744766,299.132507 144.980103,297.942596 
	C145.806595,297.846527 146.644119,297.845886 147.470840,297.751190 
	C160.410385,296.269012 172.509857,292.349396 183.289749,284.923523 
	C212.594940,264.736237 218.615021,224.984467 205.186996,194.811768 
	C193.035370,167.507034 169.882309,156.134644 141.300461,154.355637 
	C117.769394,152.891006 95.388550,158.565094 73.524925,166.639542 
	C67.966599,168.692291 66.479546,171.866562 67.723541,178.132828 
	C73.288071,206.162338 78.863266,234.189758 84.605583,263.058136 
z"/>
<path fill="#000000" opacity="1.000000" stroke="none" 
	d="
M283.426270,193.362183 
	C279.461792,198.451691 273.838745,201.219025 270.151947,206.244232 
	C265.611328,212.433228 254.773926,211.694305 249.685623,205.262772 
	C245.839874,200.401810 240.926208,196.473022 237.880447,190.471649 
	C240.223358,188.461563 241.779861,184.971313 244.015854,181.966843 
	C254.059540,168.471268 273.163330,170.256989 280.349457,185.310562 
	C281.050781,186.779694 281.481995,188.327591 283.286102,189.102844 
	C285.478516,190.044937 284.926483,191.635361 283.426270,193.362183 
M246.463486,197.102142 
	C254.355194,201.225433 262.699646,201.663483 271.088928,199.425278 
	C278.834625,197.358780 280.937958,189.512772 275.766479,183.320862 
	C267.236786,173.108063 252.014328,174.365845 244.955292,185.874481 
	C242.623886,189.675461 242.278595,193.327789 246.463486,197.102142 
M262.667786,207.588242 
	C264.219208,207.087051 265.753143,206.559998 267.413300,203.593124 
	C262.027588,206.595032 257.637085,203.886215 252.733597,204.048615 
	C255.376816,207.490814 258.468567,208.079910 262.667786,207.588242 
z"/>
<path fill="#000000" opacity="1.000000" stroke="none" 
	d="
M242.676895,129.406754 
	C243.644989,130.804001 244.471085,131.866913 245.069077,133.045563 
	C248.492615,139.793457 247.350433,143.835510 240.917877,147.690018 
	C237.485748,149.746613 235.093430,152.989990 231.496811,156.359787 
	C231.907822,151.053619 235.205048,148.892868 237.941193,146.555603 
	C245.614212,140.001190 244.000122,130.529465 234.361603,127.029274 
	C230.695572,125.697975 226.853180,124.852272 223.239120,123.311241 
	C230.152451,123.555527 237.087936,123.712570 242.676895,129.406754 
z"/>
<path fill="#000000" opacity="1.000000" stroke="none" 
	d="
M292.292480,153.287689 
	C283.869812,150.260696 280.515411,142.495193 284.054932,134.505066 
	C286.605927,128.746338 294.747986,124.023880 301.518433,124.402611 
	C301.148010,126.055817 299.655243,126.046394 298.481903,126.496292 
	C286.705627,131.011597 283.785950,140.202972 290.859955,150.423386 
	C291.421844,151.235214 291.826172,152.156082 292.292480,153.287689 
z"/>
<path fill="#000000" opacity="1.000000" stroke="none" 
	d="
M251.651825,210.997284 
	C257.657471,215.471786 263.574860,213.361664 269.688599,211.368607 
	C264.707336,218.326950 254.859421,218.553009 250.267075,212.041885 
	C249.267273,210.624359 250.064621,210.370255 251.651825,210.997284 
z"/>
<path fill="#000000" opacity="1.000000" stroke="none" 
	d="
M250.471436,172.831482 
	C248.048386,173.196320 244.782318,175.694504 245.001511,170.889236 
	C245.106308,168.592041 246.142532,165.662369 249.123154,166.501328 
	C252.033417,167.320511 252.142960,170.045654 250.471436,172.831482 
z"/>
<path fill="#000000" opacity="1.000000" stroke="none" 
	d="
M275.420837,167.514404 
	C279.442657,166.864304 280.471191,169.106293 280.079834,172.123932 
	C279.744263,174.711563 277.381653,174.566971 275.794830,173.891357 
	C272.344055,172.422119 273.841705,169.990479 275.420837,167.514404 
z"/>
<path fill="#000000" opacity="1.000000" stroke="none" 
	d="
M157.095474,195.798874 
	C167.854492,204.864853 171.389420,216.136658 168.072357,229.218384 
	C164.762039,242.273514 155.009079,248.804565 142.647156,251.986298 
	C139.122192,252.893539 135.446793,253.427124 131.811325,253.643250 
	C126.771301,253.942871 123.819855,251.696945 123.011040,246.710693 
	C120.454636,230.950897 118.004539,215.171051 115.786911,199.360596 
	C114.995041,193.714951 117.013222,190.989777 122.285477,189.916061 
	C134.471176,187.434387 146.140518,188.580215 157.095474,195.798874 
M149.807846,198.593506 
	C142.196655,194.774857 134.032700,195.044159 125.866882,195.382202 
	C123.041794,195.499161 121.705872,196.660690 122.201103,199.838226 
	C124.447762,214.253357 126.527412,228.694534 128.665268,243.126617 
	C129.211319,246.812958 131.183075,248.342911 134.927002,247.402832 
	C136.371445,247.040146 137.870941,246.898224 139.343964,246.647552 
	C151.214859,244.627258 160.691299,236.475739 162.523239,226.711472 
	C164.746948,214.859055 160.561539,205.228195 149.807846,198.593506 
z"/>
<path fill="#000000" opacity="1.000000" stroke="none" 
	d="
M268.933594,194.210770 
	C268.351105,194.253174 268.183716,194.264008 268.022400,194.237610 
	C264.121490,193.599609 263.653015,190.737457 263.820618,187.577301 
	C263.914185,185.812988 264.731323,184.233002 266.599884,183.953476 
	C269.364685,183.539841 270.898102,185.418839 271.760986,187.666641 
	C272.810089,190.399460 272.539948,192.884323 268.933594,194.210770 
z"/>
<path fill="#000000" opacity="1.000000" stroke="none" 
	d="
M253.919907,183.716034 
	C254.814835,184.110291 255.506836,184.350433 255.868393,184.836426 
	C258.114685,187.855927 257.539673,190.760010 255.021210,193.213715 
	C253.357620,194.834534 251.235535,194.665207 249.834976,192.840912 
	C247.413620,189.686981 249.073334,186.980972 251.352234,184.599152 
	C251.858398,184.070099 252.815002,183.972046 253.919907,183.716034 
z"/>
</svg>