<?xml version="1.0" standalone="no"?>
<!DOCTYPE svg PUBLIC "-//W3C//DTD SVG 20010904//EN"
 "http://www.w3.org/TR/2001/REC-SVG-20010904/DTD/svg10.dtd">
<svg version="1.0" xmlns="http://www.w3.org/2000/svg"
 width="50.000000pt" height="50.000000pt" viewBox="0 0 50.000000 50.000000"
 preserveAspectRatio="xMidYMid meet">

<g transform="translate(0.000000,50.000000) scale(0.100000,-0.100000)"
fill="#000000" stroke="none">
<path d="M210 382 c0 -4 10 -9 22 -9 18 -2 20 0 8 7 -18 12 -30 13 -30 2z"/>
<path d="M305 380 c3 -5 8 -10 11 -10 2 0 4 5 4 10 0 6 -5 10 -11 10 -5 0 -7
-4 -4 -10z"/>
<path d="M270 370 c-9 -6 -10 -10 -3 -10 6 0 15 5 18 10 8 12 4 12 -15 0z"/>
<path d="M216 347 c3 -10 9 -15 12 -12 3 3 0 11 -7 18 -10 9 -11 8 -5 -6z"/>
<path d="M71 341 c-12 -8 -12 -22 3 -98 20 -101 29 -117 57 -102 14 7 18 16
13 34 -5 20 -2 25 13 25 24 0 57 34 50 52 -4 8 -6 6 -6 -5 -1 -11 -15 -24 -37
-33 -30 -13 -35 -19 -32 -39 3 -15 0 -26 -9 -29 -16 -7 -17 -4 -38 98 -17 90
-15 96 47 96 35 0 61 -15 71 -42 2 -7 8 -10 12 -5 5 4 -2 18 -15 32 -18 20
-33 25 -69 25 -25 0 -52 -4 -60 -9z"/>
<path d="M312 320 c-31 -32 -45 -38 -36 -17 3 8 -3 13 -16 13 -27 0 -25 -14 3
-27 18 -8 23 -17 19 -35 -2 -14 0 -24 7 -24 6 0 11 -6 11 -14 0 -7 7 -19 15
-26 9 -7 14 -19 11 -26 -6 -14 23 -49 32 -39 3 3 -3 12 -14 20 -18 14 -18 15
6 12 17 -1 25 4 28 17 3 15 0 18 -17 13 -27 -7 -61 34 -61 73 0 58 64 99 109
71 22 -14 4 -33 -19 -21 -42 22 -83 -68 -45 -100 15 -13 35 -6 35 13 0 7 -4 6
-10 -3 -9 -13 -11 -13 -20 0 -24 37 7 100 40 80 21 -13 27 -12 34 6 19 50 -68
61 -112 14z m58 -150 c0 -5 -4 -10 -10 -10 -5 0 -10 5 -10 10 0 6 5 10 10 10
6 0 10 -4 10 -10z"/>
<path d="M113 304 c-3 -8 -1 -26 6 -40 9 -21 14 -23 31 -14 25 14 26 46 1 60
-26 13 -31 13 -38 -6z m47 -24 c0 -26 -28 -33 -35 -10 -4 11 -4 24 0 29 9 15
35 1 35 -19z"/>
<path d="M232 218 c-2 -56 -1 -58 23 -58 20 0 25 5 24 23 -1 16 -2 18 -6 5 -2
-10 -11 -18 -18 -18 -10 0 -15 16 -18 53 l-3 52 -2 -57z"/>
<path d="M384 256 c-17 -13 -17 -14 7 -9 26 5 26 4 19 -43 -4 -28 -15 -53 -26
-61 -10 -7 -13 -13 -7 -13 33 0 66 107 40 129 -10 8 -19 7 -33 -3z"/>
</g>
</svg>
